<svg width="252" height="70" viewBox="0 0 252 70" fill="none" xmlns="http://www.w3.org/2000/svg">
<path d="M245.159 0H128.159C119.759 0 113.659 5.66667 111.659 8.5C102.992 22.3333 85.0591 51.5 82.6591 57.5C80.2587 63.5 84.9921 67 87.6591 68H204.659C212.259 68 219.825 61 222.659 57.5L250.659 10.5C253.459 5.3 250.659 0 245.159 0Z" fill="#16A34A"/>
<path d="M120.516 57.512C117.615 57.512 115.076 56.872 112.9 55.592C110.724 54.312 109.018 52.3707 107.78 49.768C106.586 47.1227 105.988 43.7947 105.988 39.784C105.988 35.7307 106.564 32.4027 107.716 29.8C108.868 27.1973 110.532 25.256 112.708 23.976C114.884 22.696 117.487 22.056 120.516 22.056C123.759 22.056 126.66 22.8027 129.22 24.296C131.823 25.7467 133.871 27.7947 135.364 30.44C136.9 33.0853 137.668 36.2 137.668 39.784C137.668 43.4107 136.9 46.5467 135.364 49.192C133.871 51.8373 131.823 53.8853 129.22 55.336C126.66 56.7867 123.759 57.512 120.516 57.512ZM100.164 69.416V22.568H109.7V29.608L109.508 39.848L110.148 50.024V69.416H100.164ZM118.788 49.32C120.452 49.32 121.924 48.936 123.204 48.168C124.527 47.4 125.572 46.312 126.34 44.904C127.151 43.4533 127.556 41.7467 127.556 39.784C127.556 37.7787 127.151 36.072 126.34 34.664C125.572 33.256 124.527 32.168 123.204 31.4C121.924 30.632 120.452 30.248 118.788 30.248C117.124 30.248 115.631 30.632 114.308 31.4C112.986 32.168 111.94 33.256 111.172 34.664C110.404 36.072 110.02 37.7787 110.02 39.784C110.02 41.7467 110.404 43.4533 111.172 44.904C111.94 46.312 112.986 47.4 114.308 48.168C115.631 48.936 117.124 49.32 118.788 49.32ZM158.509 57V50.28L157.869 48.808V36.776C157.869 34.6427 157.208 32.9787 155.885 31.784C154.605 30.5893 152.621 29.992 149.933 29.992C148.099 29.992 146.285 30.2907 144.493 30.888C142.744 31.4427 141.251 32.2107 140.013 33.192L136.429 26.216C138.307 24.8933 140.568 23.8693 143.213 23.144C145.859 22.4187 148.547 22.056 151.277 22.056C156.525 22.056 160.6 23.2933 163.501 25.768C166.403 28.2427 167.853 32.104 167.853 37.352V57H158.509ZM148.013 57.512C145.325 57.512 143.021 57.064 141.101 56.168C139.181 55.2293 137.709 53.9707 136.685 52.392C135.661 50.8133 135.149 49.0427 135.149 47.08C135.149 45.032 135.64 43.24 136.621 41.704C137.645 40.168 139.245 38.9733 141.421 38.12C143.597 37.224 146.435 36.776 149.933 36.776H159.085V42.6H151.021C148.675 42.6 147.053 42.984 146.157 43.752C145.304 44.52 144.877 45.48 144.877 46.632C144.877 47.912 145.368 48.936 146.349 49.704C147.373 50.4293 148.76 50.792 150.509 50.792C152.173 50.792 153.667 50.408 154.989 49.64C156.312 48.8293 157.272 47.656 157.869 46.12L159.405 50.728C158.68 52.9467 157.357 54.632 155.437 55.784C153.517 56.936 151.043 57.512 148.013 57.512ZM185.523 57.512C182.281 57.512 179.358 56.7867 176.755 55.336C174.153 53.8427 172.083 51.7733 170.547 49.128C169.054 46.4827 168.307 43.368 168.307 39.784C168.307 36.1573 169.054 33.0213 170.547 30.376C172.083 27.7307 174.153 25.6827 176.755 24.232C179.358 22.7813 182.281 22.056 185.523 22.056C188.425 22.056 190.963 22.696 193.139 23.976C195.315 25.256 197.001 27.1973 198.195 29.8C199.39 32.4027 199.987 35.7307 199.987 39.784C199.987 43.7947 199.411 47.1227 198.259 49.768C197.107 52.3707 195.443 54.312 193.267 55.592C191.134 56.872 188.553 57.512 185.523 57.512ZM187.251 49.32C188.873 49.32 190.345 48.936 191.667 48.168C192.99 47.4 194.035 46.312 194.803 44.904C195.614 43.4533 196.019 41.7467 196.019 39.784C196.019 37.7787 195.614 36.072 194.803 34.664C194.035 33.256 192.99 32.168 191.667 31.4C190.345 30.632 188.873 30.248 187.251 30.248C185.587 30.248 184.094 30.632 182.771 31.4C181.449 32.168 180.382 33.256 179.571 34.664C178.803 36.072 178.419 37.7787 178.419 39.784C178.419 41.7467 178.803 43.4533 179.571 44.904C180.382 46.312 181.449 47.4 182.771 48.168C184.094 48.936 185.587 49.32 187.251 49.32ZM196.275 57V49.96L196.467 39.72L195.827 29.544V9.51199H205.811V57H196.275Z" fill="black"/>
<path d="M15.6544 59.512C12.7104 59.512 9.87313 59.1707 7.14243 58.488C4.45443 57.7627 2.32113 56.8667 0.742432 55.8L4.07043 48.632C5.64913 49.6133 7.50513 50.424 9.63843 51.064C11.8144 51.6613 13.9477 51.96 16.0384 51.96C18.3424 51.96 19.9637 51.6827 20.9024 51.128C21.8837 50.5733 22.3744 49.8053 22.3744 48.824C22.3744 48.0133 21.9904 47.416 21.2224 47.032C20.4971 46.6053 19.5157 46.2853 18.2784 46.072C17.0411 45.8587 15.6757 45.6453 14.1824 45.432C12.7317 45.2187 11.2597 44.9413 9.76643 44.6C8.27313 44.216 6.90773 43.6613 5.67043 42.936C4.43313 42.2107 3.43043 41.2293 2.66243 39.992C1.93713 38.7547 1.57443 37.1547 1.57443 35.192C1.57443 33.016 2.19313 31.096 3.43043 29.432C4.71043 27.768 6.54513 26.4667 8.93443 25.528C11.3237 24.5467 14.1824 24.056 17.5104 24.056C19.8571 24.056 22.2464 24.312 24.6784 24.824C27.1104 25.336 29.1371 26.0827 30.7584 27.064L27.4304 34.168C25.7664 33.1867 24.0811 32.5253 22.3744 32.184C20.7104 31.8 19.0891 31.608 17.5104 31.608C15.2917 31.608 13.6704 31.9067 12.6464 32.504C11.6224 33.1013 11.1104 33.8693 11.1104 34.808C11.1104 35.6613 11.4731 36.3013 12.1984 36.728C12.9664 37.1547 13.9691 37.496 15.2064 37.752C16.4437 38.008 17.7877 38.2427 19.2384 38.456C20.7317 38.6267 22.2251 38.904 23.7184 39.288C25.2117 39.672 26.5557 40.2267 27.7504 40.952C28.9877 41.6347 29.9904 42.5947 30.7584 43.832C31.5264 45.0267 31.9104 46.6053 31.9104 48.568C31.9104 50.7013 31.2704 52.6 29.9904 54.264C28.7104 55.8853 26.8544 57.1653 24.4224 58.104C22.0331 59.0427 19.1104 59.512 15.6544 59.512ZM31.6704 59V24.568H41.2064V34.296L39.8624 31.48C40.8864 29.048 42.5291 27.2133 44.7904 25.976C47.0517 24.696 49.8037 24.056 53.0464 24.056V33.272C52.6197 33.2293 52.2357 33.208 51.8944 33.208C51.5531 33.1653 51.1904 33.144 50.8064 33.144C48.0757 33.144 45.8571 33.9333 44.1504 35.512C42.4864 37.048 41.6544 39.4587 41.6544 42.744V59H31.6704ZM68.9729 59.512C65.2609 59.512 61.9542 58.7653 59.0529 57.272C56.1516 55.736 53.8689 53.624 52.2049 50.936C50.5836 48.248 49.7729 45.1973 49.7729 41.784C49.7729 38.328 50.5836 35.2773 52.2049 32.632C53.8689 29.944 56.1516 27.8533 59.0529 26.36C61.9542 24.824 65.2609 24.056 68.9729 24.056C72.5996 24.056 75.7569 24.824 78.4449 26.36C81.1329 27.8533 83.1169 30.008 84.3969 32.824L76.6529 36.984C75.7569 35.3627 74.6262 34.168 73.2609 33.4C71.9382 32.632 70.4876 32.248 68.9089 32.248C67.2022 32.248 65.6662 32.632 64.3009 33.4C62.9356 34.168 61.8476 35.256 61.0369 36.664C60.2689 38.072 59.8849 39.7787 59.8849 41.784C59.8849 43.7893 60.2689 45.496 61.0369 46.904C61.8476 48.312 62.9356 49.4 64.3009 50.168C65.6662 50.936 67.2022 51.32 68.9089 51.32C70.4876 51.32 71.9382 50.9573 73.2609 50.232C74.6262 49.464 75.7569 48.248 76.6529 46.584L84.3969 50.808C83.1169 53.5813 81.1329 55.736 78.4449 57.272C75.7569 58.7653 72.5996 59.512 68.9729 59.512Z" fill="#FFFCEA"/>
</svg>